<svg version="1.1" xmlns="http://www.w3.org/2000/svg" viewBox="0 0 4745.250000000001 2006" width="14235.750000000004" height="6018">
  <!-- svg-source:excalidraw -->
  
  <defs>
    <style>
      @font-face {
        font-family: "Virgil";
        src: url("https://excalidraw.com/Virgil.woff2");
      }
      @font-face {
        font-family: "Cascadia";
        src: url("https://excalidraw.com/Cascadia.woff2");
      }
    </style>
  </defs>
  <rect x="0" y="0" width="4745.250000000001" height="2006" fill="#ffffff"></rect><g stroke-linecap="round" transform="translate(818.0000000000009 916) rotate(0 261.5 275)"><path d="M327.23 69.13 L487.81 237.68 L505.39 263.73 L508.09 277.73 L506.46 282.98 L500.63 296.78 L477.25 321.82 L303.66 504.81 L286.8 520.03 L274.32 528.55 L263.12 531.18 L257.69 531.76 L243.41 525.97 L217.33 502.5 L43.14 322.56 L28.05 302.92 L20.13 291.01 L18.24 275.48 L18.85 268.68 L21.93 254.02 L44.65 229.59 L214.28 51.88 L242.75 24.21 L257 17.26 L262.5 16.24 L273.2 18.78 L295.39 36.28 L325.33 70.9" stroke="none" stroke-width="0" fill="#ffffff"></path><path d="M327.25 69 M327.25 69 C378.2 123.43, 428 178.56, 457.75 207 M327.25 69 C373.22 119.22, 420.86 168.48, 457.75 207 M457.75 207 C521.61 274.41, 524.43 277.59, 457.75 344.5 M457.75 207 C524.44 277.02, 521.94 276.2, 457.75 344.5 M457.75 344.5 C419.46 381.9, 380.86 423.76, 327.25 481.5 M457.75 344.5 C428.64 373.79, 399.61 404.55, 327.25 481.5 M327.25 481.5 C262.02 549.99, 263.51 549.38, 196.5 481.5 M327.25 481.5 C260.76 550.06, 260.06 550.11, 196.5 481.5 M196.5 481.5 C157.84 441.33, 121.19 405.43, 65.5 344.5 M196.5 481.5 C167.82 448.47, 136.14 417.17, 65.5 344.5 M65.5 344.5 C-1.45 276.19, 1.09 277.8, 65.5 207 M65.5 344.5 C-1.43 274.48, 2.28 276.94, 65.5 207 M65.5 207 C96.44 172.73, 129.48 135.48, 196.5 69 M65.5 207 C117.52 152.57, 168.99 97.52, 196.5 69 M196.5 69 C260.02 0.77, 261.2 -1.52, 327.25 69 M196.5 69 C263.6 -1.37, 262.85 -0.72, 327.25 69" stroke="#000000" stroke-width="4" fill="none"></path></g><g transform="translate(823.0000000000009 1168) rotate(0 256.5 23)"><text x="256.5" y="32" font-family="Virgil, Segoe UI Emoji" font-size="36px" fill="#000000" text-anchor="middle" style="white-space: pre;" direction="ltr">Bridge</text></g><g stroke-linecap="round" transform="translate(1519 1566) rotate(0 235 215)"><path d="M107.34 1.25 L373.76 -0.61 L397.57 2.26 L419.58 8.9 L434.61 20.56 L450.52 32.34 L455.34 41.54 L463.3 60.46 L471.09 93.86 L468.5 335.57 L464.54 359.13 L459.15 379.77 L449.96 394.69 L434.13 408.46 L428.92 413.52 L407.98 421.58 L376.79 429.3 L93.17 430.24 L69.51 426.41 L51.9 421.31 L32.77 408.1 L22.56 396.81 L9.52 379.44 L8.49 367.74 L1.97 333.87 L-1.05 109.39 L3.42 71.81 L10.64 51.98 L14.81 41.99 L24.9 27.64 L41.19 13.59 L52.2 9.31 L71.7 3.15 L108.62 0.84" stroke="none" stroke-width="0" fill="#ffffff"></path><path d="M107.5 0 M107.5 0 C210.87 1.21, 310.36 -0.46, 362.5 0 M107.5 0 C184.01 0.28, 260.44 0.15, 362.5 0 M362.5 0 C432.77 -1.42, 468.02 36.07, 470 107.5 M362.5 0 C434.92 -1.48, 469.21 34.71, 470 107.5 M470 107.5 C470.57 174.82, 468.21 244.91, 470 322.5 M470 107.5 C470.8 181.86, 471.15 256.54, 470 322.5 M470 322.5 C468.82 395.09, 435.57 430.55, 362.5 430 M470 322.5 C470.18 396.22, 434.32 429.63, 362.5 430 M362.5 430 C286.93 431.72, 212.39 431.49, 107.5 430 M362.5 430 C261.39 430.6, 160.29 430.32, 107.5 430 M107.5 430 C34.85 431.98, -1.23 395.38, 0 322.5 M107.5 430 C36.92 429.55, 0.24 396.39, 0 322.5 M0 322.5 C3.2 272.06, 0.85 225.42, 0 107.5 M0 322.5 C0.98 256.58, 1.47 190.82, 0 107.5 M0 107.5 C-1.01 37.8, 34.56 -0.38, 107.5 0 M0 107.5 C1.11 37.33, 37.23 -0.93, 107.5 0" stroke="#000000" stroke-width="4" fill="none"></path></g><g transform="translate(1524 1758) rotate(0 230 23)"><text x="230" y="32" font-family="Virgil, Segoe UI Emoji" font-size="36px" fill="#000000" text-anchor="middle" style="white-space: pre;" direction="ltr">wstEth</text></g><g stroke-linecap="round" transform="translate(1559.5 292) rotate(0 223 195)"><path d="M99.5 0.16 L360.5 2.16 L383.37 2.17 L399.59 9.5 L416.99 18.07 L428.06 30.04 L433.54 36.96 L438.51 53.43 L443.64 85.93 L446.27 303.02 L441.89 324.66 L436.81 343.46 L426.69 360.3 L414.32 369.79 L409.4 377.24 L391.95 384.14 L360.44 388.78 L98.43 389.07 L73.46 389.4 L56.25 384.45 L38.24 378.07 L30.98 371.02 L18.52 360.85 L14.82 350.79 L6.82 334.18 L0.82 306.25 L-1.34 98.04 L3.74 64.46 L14.35 37.49 L23.4 26.35 L29.62 19.87 L47.03 9.13 L55.05 8.03 L73.21 -0.05 L98.74 1.97" stroke="none" stroke-width="0" fill="#ffffff"></path><path d="M97.5 0 M97.5 0 C153.35 -1.87, 209.37 -0.74, 348.5 0 M97.5 0 C167.08 1.3, 236.97 0.34, 348.5 0 M348.5 0 C414.47 1.3, 447.21 31.69, 446 97.5 M348.5 0 C411.55 2.3, 446.24 30.35, 446 97.5 M446 97.5 C446.58 155.8, 448.1 211.49, 446 292.5 M446 97.5 C445.26 162.35, 446.39 225.85, 446 292.5 M446 292.5 C447.31 355.68, 412.29 391.26, 348.5 390 M446 292.5 C445.66 358.95, 413.57 392.07, 348.5 390 M348.5 390 C286.72 390.14, 229.4 391.2, 97.5 390 M348.5 390 C252.14 389.97, 155.72 390.18, 97.5 390 M97.5 390 C31.67 391.79, 1.51 355.85, 0 292.5 M97.5 390 C31.48 389.6, -0.68 355.47, 0 292.5 M0 292.5 C2.02 229.66, -0.17 161.85, 0 97.5 M0 292.5 C0.71 226.37, 0.53 158.72, 0 97.5 M0 97.5 C-1.21 32.5, 32.26 -0.81, 97.5 0 M0 97.5 C-0.5 31.73, 30.55 1.79, 97.5 0" stroke="#000000" stroke-width="4" fill="none"></path></g><g transform="translate(1564.5 464) rotate(0 218 23)"><text x="218" y="32" font-family="Virgil, Segoe UI Emoji" font-size="36px" fill="#000000" text-anchor="middle" style="white-space: pre;" direction="ltr">Lido</text></g><g stroke-linecap="round"><g transform="translate(1134.9230324540158 1435.1268301152795) rotate(0 181.1555562811036 190.4383655418187)"><path d="M-0.59 -0.27 C59.8 63.28, 302.4 318.86, 362.9 382.33 M1.3 -1.46 C61.56 62.3, 302.3 316.95, 362.39 380.78" stroke="#000000" stroke-width="4" fill="none"></path></g><g transform="translate(1134.9230324540158 1435.1268301152795) rotate(0 181.1555562811036 190.4383655418187)"><path d="M25.82 14.48 C18.69 8.93, 6.47 1.76, -0.56 1.47 M25.41 13.4 C17.37 7.63, 6.72 4.75, -0.13 -0.4" stroke="#000000" stroke-width="4" fill="none"></path></g><g transform="translate(1134.9230324540158 1435.1268301152795) rotate(0 181.1555562811036 190.4383655418187)"><path d="M10.94 28.61 C8.82 18.26, 1.73 6.21, -0.56 1.47 M10.53 27.53 C7.79 16.79, 2.33 8.99, -0.13 -0.4" stroke="#000000" stroke-width="4" fill="none"></path></g></g><g stroke-linecap="round"><g transform="translate(1632.5 1534.7719940969291) rotate(0 -149.55879845854952 -146.29751817104534)"><path d="M0.43 0.85 C-49.47 -48.04, -248.77 -244.38, -298.81 -293.44 M-0.8 0.25 C-50.88 -48.45, -249.53 -243.32, -299.55 -292.1" stroke="#000000" stroke-width="4" fill="none"></path></g><g transform="translate(1632.5 1534.7719940969291) rotate(0 -149.55879845854952 -146.29751817104534)"><path d="M-25.45 -10.93 C-18 -8.38, -8.65 -3.12, 0.45 1.91 M-27.71 -11.78 C-20.74 -8.85, -14.78 -6.55, 1.4 0.83" stroke="#000000" stroke-width="4" fill="none"></path></g><g transform="translate(1632.5 1534.7719940969291) rotate(0 -149.55879845854952 -146.29751817104534)"><path d="M-11.06 -25.56 C-8.64 -17.86, -4.3 -7.51, 0.45 1.91 M-13.32 -26.41 C-9.46 -20.33, -6.51 -14.97, 1.4 0.83" stroke="#000000" stroke-width="4" fill="none"></path></g></g><g stroke-linecap="round"><g transform="translate(1306.2562868904834 1105.9827167376807) rotate(0 291.95568391790493 -198.7460445094348)"><path d="M-0.58 -0.3 C96.66 -66.38, 487.04 -329.37, 584.49 -395.38 M1.32 -1.51 C98.28 -67.42, 485.82 -331.56, 583.37 -397.19" stroke="#000000" stroke-width="4" fill="none"></path></g><g transform="translate(1306.2562868904834 1105.9827167376807) rotate(0 291.95568391790493 -198.7460445094348)"><path d="M16.54 -25.12 C11.44 -16.45, 2.92 -6.36, 1.03 -1.88 M16.74 -24.2 C14 -19.66, 9.35 -14.65, -0.74 0.35" stroke="#000000" stroke-width="4" fill="none"></path></g><g transform="translate(1306.2562868904834 1105.9827167376807) rotate(0 291.95568391790493 -198.7460445094348)"><path d="M28.02 -8.11 C18.33 -6.08, 5.36 -2.57, 1.03 -1.88 M28.23 -7.2 C22.83 -6.54, 15.59 -5.38, -0.74 0.35" stroke="#000000" stroke-width="4" fill="none"></path></g></g><g stroke-linecap="round"><g transform="translate(1620.7796195574128 702) rotate(0 -220.08752880430484 138.92051192736926)"><path d="M1.17 -0.43 C-72.5 46.11, -367.76 231.85, -441.34 278.57 M0.32 -1.69 C-73.01 45, -365.41 232.36, -438.95 279.54" stroke="#000000" stroke-width="4" fill="none"></path></g><g transform="translate(1620.7796195574128 702) rotate(0 -220.08752880430484 138.92051192736926)"><path d="M-17.92 22.28 C-12.35 15.29, -3.55 5.35, 0.95 -1.97 M-17.9 22.94 C-11.49 15.83, -5.19 8.52, 1.28 0.35" stroke="#000000" stroke-width="4" fill="none"></path></g><g transform="translate(1620.7796195574128 702) rotate(0 -220.08752880430484 138.92051192736926)"><path d="M-28.86 4.92 C-19.48 4.01, -6.78 0.26, 0.95 -1.97 M-28.84 5.58 C-19.08 3.86, -9.43 1.87, 1.28 0.35" stroke="#000000" stroke-width="4" fill="none"></path></g></g><g stroke-linecap="round" transform="translate(10 956.5) rotate(0 235 215)"><path d="M108.47 1.14 L375.55 0 L399.97 1.99 L418.84 9.27 L434.75 19.65 L450.04 32.83 L453.41 41.37 L465.23 62.13 L469.27 96.36 L470.65 336.87 L465.35 357.41 L459.31 377.2 L450.55 395.82 L434.38 409.28 L427.38 413.14 L411.02 424.5 L374.49 430.34 L94.6 430.09 L69.38 425.78 L52.56 417.74 L33.62 411.38 L20.82 394.98 L12.37 379.53 L8.58 371.01 L0.34 333.73 L-0.72 107.98 L5.67 71.12 L12.08 51.68 L14.42 43.83 L27.13 26.51 L43.09 15.16 L49.99 10.34 L70.6 2.42 L108.16 0.65" stroke="none" stroke-width="0" fill="#ffffff"></path><path d="M107.5 0 M107.5 0 C191.71 1.67, 276.95 1.03, 362.5 0 M107.5 0 C199.83 0.93, 290.6 -0.4, 362.5 0 M362.5 0 C432.5 0.44, 471.78 37.04, 470 107.5 M362.5 0 C433.35 -1.18, 468.51 36.45, 470 107.5 M470 107.5 C470.81 163.5, 469.57 217.52, 470 322.5 M470 107.5 C468.67 149.95, 469.1 194.28, 470 322.5 M470 322.5 C470.6 394.32, 432.35 430.66, 362.5 430 M470 322.5 C467.87 395.23, 436.08 431.88, 362.5 430 M362.5 430 C308.57 428.58, 254.52 430.3, 107.5 430 M362.5 430 C291.43 429.7, 220.24 428.81, 107.5 430 M107.5 430 C35.49 428.48, -0.05 392.3, 0 322.5 M107.5 430 C33.67 429.47, -1.85 392.51, 0 322.5 M0 322.5 C2.38 252.35, 1.21 186.2, 0 107.5 M0 322.5 C1.7 268.04, 1.74 213.95, 0 107.5 M0 107.5 C-0.03 34, 37.33 1.89, 107.5 0 M0 107.5 C0.21 36.98, 34.63 2.11, 107.5 0" stroke="#000000" stroke-width="4" fill="none"></path></g><g transform="translate(15 1148.5) rotate(0 230 23)"><text x="230" y="32" font-family="Virgil, Segoe UI Emoji" font-size="36px" fill="#000000" text-anchor="middle" style="white-space: pre;" direction="ltr">Rollup</text></g><g stroke-linecap="round"><g transform="translate(497.5 1074) rotate(0 207.51895347572872 -8.246773103252053)"><path d="M-1.1 0.9 C68.27 -2, 346.69 -14.22, 416.14 -17.39 M0.53 0.32 C69.85 -2.36, 346.68 -12.89, 415.78 -15.8" stroke="#000000" stroke-width="4" fill="none"></path></g><g transform="translate(497.5 1074) rotate(0 207.51895347572872 -8.246773103252053)"><path d="M389.52 -2.53 C396.32 -6.5, 403.2 -8.98, 416.98 -16.81 M387.16 -4.15 C396.62 -8.26, 403.5 -10.75, 416.14 -16.3" stroke="#000000" stroke-width="4" fill="none"></path></g><g transform="translate(497.5 1074) rotate(0 207.51895347572872 -8.246773103252053)"><path d="M388.7 -23.04 C395.74 -21.01, 402.86 -17.49, 416.98 -16.81 M386.34 -24.66 C396.15 -22.67, 403.27 -19.07, 416.14 -16.3" stroke="#000000" stroke-width="4" fill="none"></path></g></g><g stroke-linecap="round"><g transform="translate(920 1314) rotate(0 -215.2402665301879 -11.575678695319766)"><path d="M0.75 0.84 C-71.07 -2.82, -358.46 -18.05, -430.19 -22.08 M-0.31 0.23 C-72.37 -3.78, -359.59 -20.21, -431.23 -23.99" stroke="#000000" stroke-width="4" fill="none"></path></g><g transform="translate(920 1314) rotate(0 -215.2402665301879 -11.575678695319766)"><path d="M-401.13 -32.99 C-412.18 -28.71, -424.61 -26.92, -431.33 -22.34 M-402.43 -32.41 C-408.56 -30.94, -415.62 -29.28, -431.66 -23.1" stroke="#000000" stroke-width="4" fill="none"></path></g><g transform="translate(920 1314) rotate(0 -215.2402665301879 -11.575678695319766)"><path d="M-402.26 -12.5 C-412.88 -15.61, -424.9 -21.2, -431.33 -22.34 M-403.56 -11.92 C-409.27 -14.98, -416.07 -17.84, -431.66 -23.1" stroke="#000000" stroke-width="4" fill="none"></path></g></g><g transform="translate(1342.5 758) rotate(327.917812843934 49.5 23)"><text x="0" y="32" font-family="Virgil, Segoe UI Emoji" font-size="36px" fill="#000000" text-anchor="start" style="white-space: pre;" direction="ltr">1) eth</text></g><g transform="translate(1570.9186126525974 907.5659443073255) rotate(327.917812843934 79.5 23)"><text x="0" y="32" font-family="Virgil, Segoe UI Emoji" font-size="36px" fill="#000000" text-anchor="start" style="white-space: pre;" direction="ltr">2) stEth</text></g><g transform="translate(1433.152932214708 1298.1400778522911) rotate(46.041626676009194 79 23)"><text x="0" y="32" font-family="Virgil, Segoe UI Emoji" font-size="36px" fill="#000000" text-anchor="start" style="white-space: pre;" direction="ltr">3) stEth</text></g><g transform="translate(655.5 993.5) rotate(0 57 23)"><text x="0" y="32" font-family="Virgil, Segoe UI Emoji" font-size="36px" fill="#000000" text-anchor="start" style="white-space: pre;" direction="ltr">0) eth</text></g><g transform="translate(1245.4413557058415 1540.6984429542063) rotate(46.041626676009194 89 23)"><text x="0" y="32" font-family="Virgil, Segoe UI Emoji" font-size="36px" fill="#000000" text-anchor="start" style="white-space: pre;" direction="ltr">4) wstEth</text></g><g transform="translate(628 1218.5) rotate(0 89 23)"><text x="0" y="32" font-family="Virgil, Segoe UI Emoji" font-size="36px" fill="#000000" text-anchor="start" style="white-space: pre;" direction="ltr">5) wstEth</text></g><g transform="translate(287.17391304347984 58) rotate(0 739.9130434782605 39.94835680751203)"><text x="0" y="55.896713615023415" font-family="Virgil, Segoe UI Emoji" font-size="62.52786282914878px" fill="#000000" text-anchor="start" style="white-space: pre;" direction="ltr">Deposit into Lido through Aztec Connect Bridge</text></g><g stroke-linecap="round" transform="translate(3547.750000000002 868) rotate(0 261.5 275)"><path d="M325.49 70.55 L488.8 239.86 L504.24 263.76 L506.73 277.18 L507.57 280.92 L499.59 296.91 L480.06 321.45 L306.89 502.01 L287.52 518.61 L274.03 529.2 L261.71 532.46 L257.36 533.22 L242.61 525.18 L218.7 502.12 L43.44 323.42 L30.12 303.04 L18.8 290.7 L16.29 276.41 L16.92 270.9 L22.49 255.06 L45.92 229.51 L214.16 52.32 L240.78 25.47 L254.27 17.36 L263.61 15.99 L274.2 20.81 L297.69 38.13 L327.66 68.09" stroke="none" stroke-width="0" fill="#ffffff"></path><path d="M327.25 69 M327.25 69 C351.24 99.49, 379.44 126.21, 457.75 207 M327.25 69 C375.77 121.25, 423.79 171.72, 457.75 207 M457.75 207 C523.57 275.31, 521.84 277.24, 457.75 344.5 M457.75 207 C521.32 274.73, 524.5 275.8, 457.75 344.5 M457.75 344.5 C414.42 390.43, 372.61 437.99, 327.25 481.5 M457.75 344.5 C419.98 381.7, 383.58 420.6, 327.25 481.5 M327.25 481.5 C260.71 549.62, 262.62 549.85, 196.5 481.5 M327.25 481.5 C262.41 549.54, 264.2 550.36, 196.5 481.5 M196.5 481.5 C152.06 432.1, 103.97 383.85, 65.5 344.5 M196.5 481.5 C158.76 443.79, 122.49 405.93, 65.5 344.5 M65.5 344.5 C1.58 274.77, -0.23 277.08, 65.5 207 M65.5 344.5 C1 273.83, 0.65 277.01, 65.5 207 M65.5 207 C104.25 163.37, 146.64 119.1, 196.5 69 M65.5 207 C99.39 170.65, 130.78 136.51, 196.5 69 M196.5 69 C261.66 1.18, 262.74 -0.55, 327.25 69 M196.5 69 C260.81 1.78, 263.2 2.06, 327.25 69" stroke="#000000" stroke-width="4" fill="none"></path></g><g transform="translate(3552.750000000002 1120) rotate(0 256.5 23)"><text x="256.5" y="32" font-family="Virgil, Segoe UI Emoji" font-size="36px" fill="#000000" text-anchor="middle" style="white-space: pre;" direction="ltr">Bridge</text></g><g stroke-linecap="round" transform="translate(4248.750000000001 1518) rotate(0 235 215)"><path d="M108.73 0.42 L376.13 1.42 L399.08 5.02 L420.84 9.01 L435.77 21.33 L450.32 33.71 L456.19 40.02 L462.3 59.05 L469.13 94.02 L469.32 335.1 L467.77 360.18 L459.4 378.72 L449.87 394.13 L435.42 411.08 L429.47 414.1 L408.88 424.9 L375.43 430.05 L94.26 431.02 L70.17 425.62 L52.72 419.1 L34.87 410.33 L18.65 396.93 L8.96 378.49 L8.36 368.27 L0.14 335.84 L1.12 108.17 L4.19 70.05 L8.59 49.61 L13.54 40.11 L28.1 26.51 L41.71 16.49 L51.12 8.55 L71.35 3.97 L107.69 -0.65" stroke="none" stroke-width="0" fill="#ffffff"></path><path d="M107.5 0 M107.5 0 C192.31 0.02, 274.23 2.25, 362.5 0 M107.5 0 C182.52 -0.69, 255.85 -0.07, 362.5 0 M362.5 0 C435.55 -0.42, 469.1 34.99, 470 107.5 M362.5 0 C432.51 -1.15, 468.42 36.21, 470 107.5 M470 107.5 C469.51 158.49, 469.29 210.52, 470 322.5 M470 107.5 C470.77 176.12, 470.9 243.32, 470 322.5 M470 322.5 C470.09 393.66, 436.02 431.11, 362.5 430 M470 322.5 C468.94 392.37, 432.51 427.73, 362.5 430 M362.5 430 C266.73 430.46, 167.68 430.22, 107.5 430 M362.5 430 C274.45 430.9, 186.87 431.3, 107.5 430 M107.5 430 C34.59 429.01, -0.27 395.77, 0 322.5 M107.5 430 C37.87 428.32, -1.24 393.48, 0 322.5 M0 322.5 C-1.6 260.75, 0.24 201.71, 0 107.5 M0 322.5 C1.39 239.56, 0.41 155.78, 0 107.5 M0 107.5 C0.96 36.53, 35.19 1.18, 107.5 0 M0 107.5 C-1.44 34, 37.85 0.78, 107.5 0" stroke="#000000" stroke-width="4" fill="none"></path></g><g transform="translate(4253.750000000001 1710) rotate(0 230 23)"><text x="230" y="32" font-family="Virgil, Segoe UI Emoji" font-size="36px" fill="#000000" text-anchor="middle" style="white-space: pre;" direction="ltr">Curve</text></g><g stroke-linecap="round" transform="translate(4289.250000000001 244) rotate(0 223 195)"><path d="M98.11 1 L360.35 1.62 L383.28 1.94 L399.7 10.28 L416.05 18.36 L428.64 28.88 L431.31 36.67 L439.46 54.38 L445.36 85.28 L447.17 305.45 L442.47 325.17 L436.93 342.06 L426.77 360.81 L416.61 370.56 L407.26 377.9 L391.07 384.38 L360.08 391.06 L96.71 389.4 L76.56 388.07 L55.7 384.81 L36.16 377.23 L29.31 370.64 L20.31 357.89 L13.43 352.24 L7.22 335.82 L0.79 303.39 L-1.91 96.3 L1.85 62.49 L14.94 37.72 L24.1 25.75 L31.16 16.71 L46.47 9.71 L55.03 5.44 L75.22 0.83 L96.34 1.24" stroke="none" stroke-width="0" fill="#ffffff"></path><path d="M97.5 0 M97.5 0 C154.35 -0.81, 211.91 0.08, 348.5 0 M97.5 0 C168.79 -1.35, 238.59 -1.52, 348.5 0 M348.5 0 C412.06 -1, 444.63 32.83, 446 97.5 M348.5 0 C412.02 -0.43, 446.72 32.32, 446 97.5 M446 97.5 C445.92 160.58, 445.07 220.84, 446 292.5 M446 97.5 C445.72 172.59, 446.61 248.74, 446 292.5 M446 292.5 C445.08 355.94, 412.06 388.02, 348.5 390 M446 292.5 C447.82 356.08, 413.23 391.25, 348.5 390 M348.5 390 C263.05 390.84, 177.4 389.88, 97.5 390 M348.5 390 C292.9 388.97, 238.22 390.03, 97.5 390 M97.5 390 C34.27 388.54, -1.08 356.9, 0 292.5 M97.5 390 C32.11 391.36, 0.85 356.86, 0 292.5 M0 292.5 C0.29 243.4, -2.86 197.38, 0 97.5 M0 292.5 C0.94 215.64, 0.14 138.68, 0 97.5 M0 97.5 C-1.25 30.91, 34.25 0.68, 97.5 0 M0 97.5 C-0.74 33.36, 31.05 1.2, 97.5 0" stroke="#000000" stroke-width="4" fill="none"></path></g><g transform="translate(4294.250000000001 416) rotate(0 218 23)"><text x="218" y="32" font-family="Virgil, Segoe UI Emoji" font-size="36px" fill="#000000" text-anchor="middle" style="white-space: pre;" direction="ltr">wstEth</text></g><g stroke-linecap="round"><g transform="translate(3864.6730324540167 1387.1268301152813) rotate(0 180.998410882798 190.4038448432848)"><path d="M0.99 -0.89 C61.31 62.6, 301.68 318.04, 361.95 381.7 M0.05 1.25 C60.2 64.31, 300.59 316.31, 360.93 379.82" stroke="#000000" stroke-width="4" fill="none"></path></g><g transform="translate(3864.6730324540167 1387.1268301152813) rotate(0 180.998410882798 190.4038448432848)"><path d="M26.31 12.36 C20.36 9.62, 11.21 5.96, -0.98 -1.88 M27.67 12.36 C22.46 9.99, 15.49 6.1, 1.21 -1.82" stroke="#000000" stroke-width="4" fill="none"></path></g><g transform="translate(3864.6730324540167 1387.1268301152813) rotate(0 180.998410882798 190.4038448432848)"><path d="M11.38 26.44 C9.86 19.32, 5.22 11.4, -0.98 -1.88 M12.74 26.44 C10.99 20.88, 7.44 13.77, 1.21 -1.82" stroke="#000000" stroke-width="4" fill="none"></path></g></g><g stroke-linecap="round"><g transform="translate(4362.250000000001 1486.7719940969255) rotate(0 -149.32120520419585 -147.24690650912999)"><path d="M-0.89 -0.13 C-50.81 -49.05, -249.02 -243.83, -298.77 -292.53 M0.84 -1.24 C-49.27 -50.61, -249.3 -245.54, -299.48 -294.37" stroke="#000000" stroke-width="4" fill="none"></path></g><g transform="translate(4362.250000000001 1486.7719940969255) rotate(0 -149.32120520419585 -147.24690650912999)"><path d="M-28.41 -11.8 C-17.31 -8.16, -7.02 -5.33, -1.88 -1.55 M-28.41 -11.78 C-20.08 -9.12, -13.31 -5.4, -1.82 -0.41" stroke="#000000" stroke-width="4" fill="none"></path></g><g transform="translate(4362.250000000001 1486.7719940969255) rotate(0 -149.32120520419585 -147.24690650912999)"><path d="M-14.04 -26.45 C-8.02 -17.61, -2.93 -9.48, -1.88 -1.55 M-14.03 -26.42 C-9.73 -19.72, -6.94 -11.93, -1.82 -0.41" stroke="#000000" stroke-width="4" fill="none"></path></g></g><g stroke-linecap="round"><g transform="translate(4036.0062868904843 1057.9827167376789) rotate(0 291.8490137311901 -197.85523808858943)"><path d="M-0.13 0.45 C97.27 -65.43, 487.73 -329.89, 585.35 -396.16 M-1.65 -0.36 C95.54 -65.97, 486.87 -328.7, 584.69 -394.72" stroke="#000000" stroke-width="4" fill="none"></path></g><g transform="translate(4036.0062868904843 1057.9827167376789) rotate(0 291.8490137311901 -197.85523808858943)"><path d="M18.21 -22.95 C10.25 -13.27, 1.86 -6.27, -1.55 0 M18.24 -23.28 C12.51 -17.4, 7.92 -11.37, -0.41 1.28" stroke="#000000" stroke-width="4" fill="none"></path></g><g transform="translate(4036.0062868904843 1057.9827167376789) rotate(0 291.8490137311901 -197.85523808858943)"><path d="M29.72 -5.96 C17.49 -2.79, 4.69 -2.28, -1.55 0 M29.74 -6.29 C20.86 -5.13, 13.08 -3.8, -0.41 1.28" stroke="#000000" stroke-width="4" fill="none"></path></g></g><g stroke-linecap="round"><g transform="translate(4350.529619557413 654) rotate(0 -220.75542993575982 140.11145558587032)"><path d="M0.45 0.54 C-72.88 47.3, -367.19 234.02, -440.92 280.44 M-0.77 -0.22 C-74.2 46.21, -368.82 232.02, -441.96 278.73" stroke="#000000" stroke-width="4" fill="none"></path></g><g transform="translate(4350.529619557413 654) rotate(0 -220.75542993575982 140.11145558587032)"><path d="M-16.95 24.01 C-12.39 16.91, -10.55 12.11, 0 0.07 M-17.28 24.26 C-12.78 17.57, -8.22 10.24, 1.28 1.27" stroke="#000000" stroke-width="4" fill="none"></path></g><g transform="translate(4350.529619557413 654) rotate(0 -220.75542993575982 140.11145558587032)"><path d="M-27.95 6.68 C-20.93 3.45, -16.61 2.55, 0 0.07 M-28.27 6.94 C-20.66 5.13, -12.94 2.77, 1.28 1.27" stroke="#000000" stroke-width="4" fill="none"></path></g></g><g stroke-linecap="round" transform="translate(2739.75 908.5) rotate(0 235 215)"><path d="M107.29 0.75 L376.42 0.12 L400.34 1.81 L418.21 9.08 L435.54 20.11 L449.16 33.6 L456.44 43.14 L463.18 60 L470.03 92.63 L469.01 337.18 L467.68 358.25 L458.85 380.8 L449.33 396.46 L435.76 410.87 L427.21 414.28 L411.45 422.88 L376.38 430.48 L92.55 430.52 L69.43 425.53 L52.45 418.24 L33.73 409.75 L21.7 396.65 L10.91 378.27 L4.81 368.33 L-1.16 333.64 L1.23 107.13 L3.5 72.34 L10.8 48.86 L15.5 42.18 L27.06 26.22 L42.57 14.43 L49.65 11.74 L69.51 2.68 L108.81 -0.17" stroke="none" stroke-width="0" fill="#ffffff"></path><path d="M107.5 0 M107.5 0 C191.87 -2.35, 277.75 -0.68, 362.5 0 M107.5 0 C178.11 0.46, 249.32 1, 362.5 0 M362.5 0 C432.88 -0.38, 470.62 35.68, 470 107.5 M362.5 0 C434.58 -0.46, 472.2 36.19, 470 107.5 M470 107.5 C471.01 183.59, 469.66 260.33, 470 322.5 M470 107.5 C471.34 165.91, 471.11 224.83, 470 322.5 M470 322.5 C471.58 392.93, 433.93 431.08, 362.5 430 M470 322.5 C471 391.99, 434.82 431.01, 362.5 430 M362.5 430 C280.61 428.64, 200.84 428.1, 107.5 430 M362.5 430 C299.34 431.06, 234.3 431.41, 107.5 430 M107.5 430 C35.49 431.18, 0.74 393.61, 0 322.5 M107.5 430 C34.65 431.78, 1.2 396.23, 0 322.5 M0 322.5 C2.95 264.63, 2.95 208.43, 0 107.5 M0 322.5 C0.06 249.82, 1.37 178.82, 0 107.5 M0 107.5 C-0.64 36.58, 34.58 1.04, 107.5 0 M0 107.5 C1.27 36.76, 37.49 1.52, 107.5 0" stroke="#000000" stroke-width="4" fill="none"></path></g><g transform="translate(2744.75 1100.5) rotate(0 230 23)"><text x="230" y="32" font-family="Virgil, Segoe UI Emoji" font-size="36px" fill="#000000" text-anchor="middle" style="white-space: pre;" direction="ltr">Rollup</text></g><g stroke-linecap="round"><g transform="translate(3227.25 1026) rotate(0 208.27468347577405 -8.76944850089967)"><path d="M0.78 -1.18 C69.76 -4.21, 345.42 -15.58, 414.41 -18.35 M-0.26 0.81 C69.07 -2.07, 347.8 -14.36, 416.81 -17.26" stroke="#000000" stroke-width="4" fill="none"></path></g><g transform="translate(3227.25 1026) rotate(0 208.27468347577405 -8.76944850089967)"><path d="M387.12 -6.77 C397.26 -10.38, 407.77 -14.15, 416.4 -15.71 M389.32 -6.72 C398.72 -8.99, 409.63 -14.31, 416.49 -16.45" stroke="#000000" stroke-width="4" fill="none"></path></g><g transform="translate(3227.25 1026) rotate(0 208.27468347577405 -8.76944850089967)"><path d="M386.24 -27.28 C396.64 -23.81, 407.47 -20.51, 416.4 -15.71 M388.43 -27.22 C398.14 -22.17, 409.37 -20.16, 416.49 -16.45" stroke="#000000" stroke-width="4" fill="none"></path></g></g><g stroke-linecap="round"><g transform="translate(3649.75 1266) rotate(0 -215.2262158929002 -10.52736616535094)"><path d="M-1.18 -0.59 C-72.96 -4.52, -359.33 -19.09, -430.85 -22.77 M0.4 1.72 C-70.99 -2.1, -356.65 -17.52, -428.58 -21.37" stroke="#000000" stroke-width="4" fill="none"></path></g><g transform="translate(3649.75 1266) rotate(0 -215.2262158929002 -10.52736616535094)"><path d="M-400.87 -31.52 C-408.46 -28.37, -416.44 -25.83, -427.03 -20.23 M-400.81 -30.39 C-407.54 -26.73, -417.23 -25.21, -427.78 -21.42" stroke="#000000" stroke-width="4" fill="none"></path></g><g transform="translate(3649.75 1266) rotate(0 -215.2262158929002 -10.52736616535094)"><path d="M-401.97 -11.03 C-409.38 -13.7, -417.05 -17, -427.03 -20.23 M-401.91 -9.9 C-408.27 -12.29, -417.64 -16.82, -427.78 -21.42" stroke="#000000" stroke-width="4" fill="none"></path></g></g><g transform="translate(4067.2104739178594 692.4725387380604) rotate(327.917812843934 82.49999999999955 23)"><text x="0" y="32" font-family="Virgil, Segoe UI Emoji" font-size="36px" fill="#000000" text-anchor="start" style="white-space: pre;" direction="ltr">1) wstEth</text></g><g transform="translate(4300.668612652597 859.5659443073237) rotate(327.917812843934 79.5 23)"><text x="0" y="32" font-family="Virgil, Segoe UI Emoji" font-size="36px" fill="#000000" text-anchor="start" style="white-space: pre;" direction="ltr">2) stEth</text></g><g transform="translate(4162.902932214708 1250.1400778522948) rotate(46.041626676009194 79 23)"><text x="0" y="32" font-family="Virgil, Segoe UI Emoji" font-size="36px" fill="#000000" text-anchor="start" style="white-space: pre;" direction="ltr">3) stEth</text></g><g transform="translate(3385.25 945.5) rotate(0 90 23)"><text x="0" y="32" font-family="Virgil, Segoe UI Emoji" font-size="36px" fill="#000000" text-anchor="start" style="white-space: pre;" direction="ltr">0) wstEth</text></g><g transform="translate(3985.2848818765624 1468.9435812053252) rotate(46.041626676009194 56 23)"><text x="0" y="32" font-family="Virgil, Segoe UI Emoji" font-size="36px" fill="#000000" text-anchor="start" style="white-space: pre;" direction="ltr">4) eth</text></g><g transform="translate(3357.75 1170.5) rotate(0 55.5 23)"><text x="0" y="32" font-family="Virgil, Segoe UI Emoji" font-size="36px" fill="#000000" text-anchor="start" style="white-space: pre;" direction="ltr">5) eth</text></g><g transform="translate(3014.42391304348 10) rotate(0 767.5000000000005 40)"><text x="0" y="56" font-family="Virgil, Segoe UI Emoji" font-size="62.52786282914878px" fill="#000000" text-anchor="start" style="white-space: pre;" direction="ltr">Withdraw from Lido through Aztec Connect Bridge</text></g></svg>