<svg version="1.1" xmlns="http://www.w3.org/2000/svg" viewBox="0 0 4811.250000000002 1936" width="14433.750000000005" height="5808">
  <!-- svg-source:excalidraw -->
  
  <defs>
    <style>
      @font-face {
        font-family: "Virgil";
        src: url("https://excalidraw.com/Virgil.woff2");
      }
      @font-face {
        font-family: "Cascadia";
        src: url("https://excalidraw.com/Cascadia.woff2");
      }
    </style>
  </defs>
  <rect x="0" y="0" width="4811.250000000002" height="1936" fill="#ffffff"></rect><g stroke-linecap="round" transform="translate(820.0000000000014 918) rotate(0 261.5 275)"><path d="M326.37 68.51 L488.77 239.18 L502.43 262.13 L508.35 276.09 L504.04 282.51 L501.31 295.02 L479.9 321.11 L304.36 505.13 L287.61 518.07 L274.76 529.17 L260.36 533.14 L257.38 533.77 L243.22 527.07 L217.19 502.72 L44.16 321.91 L30.11 304.71 L20.18 287.44 L15.27 277.6 L15.57 270.6 L25.11 257.49 L42.18 230.83 L214.85 52.79 L244.33 25.84 L253.91 17.64 L261.2 18.47 L274.78 19.44 L294.72 36.22 L328.93 70.27" stroke="none" stroke-width="0" fill="#ffffff"></path><path d="M327.25 69 M327.25 69 C354.52 98.89, 382.8 128.29, 457.75 207 M327.25 69 C380.42 124.49, 432.98 180.35, 457.75 207 M457.75 207 C523.38 276.79, 523.23 277.42, 457.75 344.5 M457.75 207 C522.11 278.21, 522.74 275.65, 457.75 344.5 M457.75 344.5 C431.71 374.43, 403.93 405.23, 327.25 481.5 M457.75 344.5 C424.31 380.71, 391.31 416.94, 327.25 481.5 M327.25 481.5 C260.94 548.42, 262.38 550.85, 196.5 481.5 M327.25 481.5 C262.57 550.65, 263.96 551.35, 196.5 481.5 M196.5 481.5 C156.77 438.44, 118.16 399.74, 65.5 344.5 M196.5 481.5 C166.73 450.23, 135.86 420.33, 65.5 344.5 M65.5 344.5 C-1.26 274.52, -1.04 275.53, 65.5 207 M65.5 344.5 C-2.23 275.2, 1.13 277.36, 65.5 207 M65.5 207 C115.8 153.46, 167.03 98.35, 196.5 69 M65.5 207 C106.13 166.91, 144.37 125.26, 196.5 69 M196.5 69 C260.4 1.44, 261.5 1.18, 327.25 69 M196.5 69 C261.83 1.99, 263.61 -0.37, 327.25 69" stroke="#000000" stroke-width="4" fill="none"></path></g><g transform="translate(825.0000000000014 1170) rotate(0 256.5 23)"><text x="256.5" y="32" font-family="Virgil, Segoe UI Emoji" font-size="36px" fill="#000000" text-anchor="middle" style="white-space: pre;" direction="ltr">Bridge</text></g><g stroke-linecap="round" transform="translate(816.9999999999995 224) rotate(0 235 215)"><path d="M108.7 -0.26 L374.31 -0.22 L400.7 3.93 L417.3 10.59 L437.49 19.45 L450.17 33.37 L453.66 43.14 L462.39 58.5 L469.86 93.99 L467.97 335.78 L467.79 360.73 L460.02 380.61 L448.37 394.73 L436.14 409.58 L429.46 415.77 L410.26 421.64 L374.42 431.24 L92.91 430.73 L72.8 428.04 L48.98 420.42 L35.56 410.8 L22.2 397.3 L8.6 378.77 L5.95 370.75 L0.72 334.48 L-1.85 106.26 L5.46 72.23 L8.82 50.15 L15.68 41.51 L27.29 26.45 L41.97 17.09 L52.67 9.87 L70.7 3.92 L108.32 1.86" stroke="none" stroke-width="0" fill="#ffffff"></path><path d="M107.5 0 M107.5 0 C190.04 -0.86, 271.85 -0.43, 362.5 0 M107.5 0 C180.05 -0.2, 252.89 -0.04, 362.5 0 M362.5 0 C435.84 -0.82, 471.18 36.97, 470 107.5 M362.5 0 C433.19 -0.09, 470.93 37.38, 470 107.5 M470 107.5 C469.26 161.07, 469.01 215.27, 470 322.5 M470 107.5 C469.68 184.17, 469.24 261.48, 470 322.5 M470 322.5 C470.55 392.7, 435.35 430.5, 362.5 430 M470 322.5 C471.63 392.84, 433.02 431.27, 362.5 430 M362.5 430 C301.69 427.37, 241.08 429.72, 107.5 430 M362.5 430 C271.61 427.64, 179.58 427.98, 107.5 430 M107.5 430 C34.48 429.93, -1.19 392.92, 0 322.5 M107.5 430 C38.01 430.06, 0.75 392.59, 0 322.5 M0 322.5 C-0.32 275.05, 0.16 229.09, 0 107.5 M0 322.5 C1.77 260.87, 1.26 201.24, 0 107.5 M0 107.5 C-1.66 37.61, 37.66 1.12, 107.5 0 M0 107.5 C1.4 36.01, 34.43 -1.86, 107.5 0" stroke="#000000" stroke-width="4" fill="none"></path></g><g transform="translate(821.9999999999995 416) rotate(0 230 23)"><text x="230" y="32" font-family="Virgil, Segoe UI Emoji" font-size="36px" fill="#000000" text-anchor="middle" style="white-space: pre;" direction="ltr">wstEth</text></g><g stroke-linecap="round" transform="translate(1839.4999999999995 930.5) rotate(0 223 195)"><path d="M96.3 -0.64 L361.97 0.53 L379.75 3.52 L401.42 8.39 L415.89 18.02 L426.12 32 L431.4 36.12 L440.19 54.35 L444.01 85.96 L447.19 306.01 L443.09 327.06 L435.43 342.66 L427.49 359.31 L416.61 372.23 L408.65 374.64 L390.06 385.57 L358.73 390.76 L99.33 391.82 L72.82 389.4 L56.39 385.28 L39.71 377.6 L28.95 370.92 L17.89 360.37 L14.01 350.87 L4.25 333.92 L2.06 305.57 L-1.68 96.83 L3.99 63.88 L14.13 37.66 L24.35 26.35 L32.71 18.03 L45.82 9.66 L55.66 7.95 L75.03 2.31 L97.73 1.42" stroke="none" stroke-width="0" fill="#ffffff"></path><path d="M97.5 0 M97.5 0 C162.87 -1.14, 229.4 0.12, 348.5 0 M97.5 0 C193.2 -2.34, 288.01 -1.54, 348.5 0 M348.5 0 C412.65 -0.08, 446.81 33.85, 446 97.5 M348.5 0 C412.28 -1.82, 446.44 33.48, 446 97.5 M446 97.5 C447.72 160.8, 446.04 223.47, 446 292.5 M446 97.5 C444.63 146.08, 444.94 196.39, 446 292.5 M446 292.5 C447.42 356.34, 412.51 391.1, 348.5 390 M446 292.5 C444.55 355.79, 412.31 389.46, 348.5 390 M348.5 390 C298.45 392.38, 245.03 392.41, 97.5 390 M348.5 390 C289.11 389.5, 230.35 389.02, 97.5 390 M97.5 390 C34.39 390.06, 0.65 356.13, 0 292.5 M97.5 390 C30.66 391.66, -0.58 358.86, 0 292.5 M0 292.5 C-2.01 234.13, 0.12 179.61, 0 97.5 M0 292.5 C-0.84 248.34, 0.9 202.96, 0 97.5 M0 97.5 C1.21 32.65, 31.28 -1.62, 97.5 0 M0 97.5 C-1.32 32.52, 30.55 -0.6, 97.5 0" stroke="#000000" stroke-width="4" fill="none"></path></g><g transform="translate(1844.4999999999995 1102.5) rotate(0 218 23)"><text x="218" y="32" font-family="Virgil, Segoe UI Emoji" font-size="36px" fill="#000000" text-anchor="middle" style="white-space: pre;" direction="ltr">Curve</text></g><g stroke-linecap="round"><g transform="translate(1250.7313797170304 1068.5569002760349) rotate(0 -10.544536248209624 -196.58818737034744)"><path d="M-1.13 0.06 C-4.81 -65.5, -17.69 -327.73, -21.09 -393.23 M0.47 -0.96 C-3.37 -66.37, -17.8 -326.91, -21.56 -392.05" stroke="#000000" stroke-width="4" fill="none"></path></g><g transform="translate(1250.7313797170304 1068.5569002760349) rotate(0 -10.544536248209624 -196.58818737034744)"><path d="M-12.71 -26.07 C-9.44 -16.14, -4.48 -7.51, 0.02 -0.83 M-13.62 -27.44 C-9.63 -21.12, -7.8 -15.68, -1.66 -0.57" stroke="#000000" stroke-width="4" fill="none"></path></g><g transform="translate(1250.7313797170304 1068.5569002760349) rotate(0 -10.544536248209624 -196.58818737034744)"><path d="M7.78 -27.11 C3.2 -16.97, 0.31 -7.95, 0.02 -0.83 M6.88 -28.49 C6.73 -22, 4.42 -16.35, -1.66 -0.57" stroke="#000000" stroke-width="4" fill="none"></path></g></g><g stroke-linecap="round"><g transform="translate(949.4812916276692 685.2280059030745) rotate(0 -20.883611501971245 186.53478772678682)"><path d="M0.06 0.9 C-6.93 63.21, -34.89 310.96, -41.83 372.74 M-1.37 0.33 C-7.97 62.38, -32.61 308.82, -39.47 370.85" stroke="#000000" stroke-width="4" fill="none"></path></g><g transform="translate(949.4812916276692 685.2280059030745) rotate(0 -20.883611501971245 186.53478772678682)"><path d="M8.6 28.94 C5.95 20.46, 1.82 13.28, -0.83 -1.06 M7.23 30.85 C5.81 21.1, 3.46 11.16, -0.57 0.98" stroke="#000000" stroke-width="4" fill="none"></path></g><g transform="translate(949.4812916276692 685.2280059030745) rotate(0 -20.883611501971245 186.53478772678682)"><path d="M-11.79 26.64 C-8.19 18.86, -6.05 12.38, -0.83 -1.06 M-13.16 28.55 C-8.18 19.69, -4.13 10.47, -0.57 0.98" stroke="#000000" stroke-width="4" fill="none"></path></g></g><g stroke-linecap="round"><g transform="translate(1221.8193554458962 1327.4747096526407) rotate(0 294.1263263176925 -53.76459200592035)"><path d="M0.9 -0.68 C99.15 -18.87, 490.63 -91.22, 588.34 -109.11 M-0.08 1.58 C98.14 -16.45, 489.33 -89.18, 587.62 -107.77" stroke="#000000" stroke-width="4" fill="none"></path></g><g transform="translate(1221.8193554458962 1327.4747096526407) rotate(0 294.1263263176925 -53.76459200592035)"><path d="M25.63 -15.15 C20.81 -13.79, 17.28 -10.33, -1.06 -0.39 M27.55 -15.04 C19.77 -10.95, 11.87 -8.11, 0.98 -0.6" stroke="#000000" stroke-width="4" fill="none"></path></g><g transform="translate(1221.8193554458962 1327.4747096526407) rotate(0 294.1263263176925 -53.76459200592035)"><path d="M29.36 5.03 C23.76 2.27, 19.47 1.58, -1.06 -0.39 M31.28 5.14 C22.64 3.67, 13.71 0.96, 0.98 -0.6" stroke="#000000" stroke-width="4" fill="none"></path></g></g><g stroke-linecap="round"><g transform="translate(1819.4999999999995 1041.855232382968) rotate(0 -288.19103803382814 2.185979445146586)"><path d="M-0.68 0.45 C-96.75 0.89, -480.63 3.03, -576.4 3.59 M1.17 -0.37 C-95.11 0.14, -481.4 3.87, -577.55 4.74" stroke="#000000" stroke-width="4" fill="none"></path></g><g transform="translate(1819.4999999999995 1041.855232382968) rotate(0 -288.19103803382814 2.185979445146586)"><path d="M-28.07 10.22 C-21.54 8.99, -12.63 2.7, -0.39 -0.05 M-27.96 11.11 C-21.94 7.82, -17.1 6.14, -0.6 1.17" stroke="#000000" stroke-width="4" fill="none"></path></g><g transform="translate(1819.4999999999995 1041.855232382968) rotate(0 -288.19103803382814 2.185979445146586)"><path d="M-28.18 -10.3 C-21.46 -5.27, -12.52 -5.3, -0.39 -0.05 M-28.07 -9.41 C-22 -8.19, -17.13 -5.37, -0.6 1.17" stroke="#000000" stroke-width="4" fill="none"></path></g></g><g stroke-linecap="round" transform="translate(10 956.5) rotate(0 235.00000000000023 215)"><path d="M109 -1.13 L376.26 -0.22 L397.81 4.93 L418.3 8.53 L436.27 20.08 L447.82 34.28 L456.46 43.69 L463.8 61.89 L468.53 93.22 L469.73 335.68 L467.68 359.92 L460.23 377.54 L448.32 397.65 L434.41 410.57 L429.84 416.7 L407.7 424.2 L377.07 430.95 L96.11 430.89 L69.07 425.8 L50.04 420.72 L34.31 408.38 L18.73 394.75 L12.18 380.46 L5.04 368.87 L0.98 335.04 L0.42 107.08 L3.75 72.94 L12.35 50.18 L14.85 42.13 L27.7 28.73 L42.38 15.91 L51.04 11.92 L70.2 5.7 L107.27 -0.31" stroke="none" stroke-width="0" fill="#ffffff"></path><path d="M107.5 0 M107.5 0 C163.81 0.51, 219.17 1.5, 362.5 0 M107.5 0 C173.25 -1.2, 240.02 -0.63, 362.5 0 M362.5 0 C433.11 -1.58, 470.38 36.69, 470 107.5 M362.5 0 C434.74 0.65, 471.96 37.18, 470 107.5 M470 107.5 C468.7 170.26, 469.17 236.45, 470 322.5 M470 107.5 C471.73 155.68, 470.67 205.36, 470 322.5 M470 322.5 C468.74 392.68, 433.13 429.53, 362.5 430 M470 322.5 C467.77 393.37, 435.29 431.36, 362.5 430 M362.5 430 C263.36 432.33, 165.96 430.69, 107.5 430 M362.5 430 C287.62 428.73, 211.47 428.16, 107.5 430 M107.5 430 C34.23 431.44, -0.5 395.35, 0 322.5 M107.5 430 C35.66 431.99, 1.61 393.8, 0 322.5 M0 322.5 C-2.91 272.41, -0.12 220.85, 0 107.5 M0 322.5 C-1.19 238.98, -2.25 154.61, 0 107.5 M0 107.5 C-1.15 35.85, 34.14 -0.52, 107.5 0 M0 107.5 C1.21 34.54, 36.49 1.78, 107.5 0" stroke="#000000" stroke-width="4" fill="none"></path></g><g transform="translate(15 1148.5) rotate(0 229.99999999999977 23)"><text x="230" y="32" font-family="Virgil, Segoe UI Emoji" font-size="36px" fill="#000000" text-anchor="middle" style="white-space: pre;" direction="ltr">Rollup</text></g><g stroke-linecap="round"><g transform="translate(497.49999999999955 1074) rotate(0 208.16055773799462 -8.303125456071939)"><path d="M-0.73 0.69 C68.7 -2.13, 347.31 -14.45, 417.05 -17.3 M1.08 0.01 C70.27 -2.68, 346.49 -13.84, 415.83 -16.38" stroke="#000000" stroke-width="4" fill="none"></path></g><g transform="translate(497.49999999999955 1074) rotate(0 208.16055773799462 -8.303125456071939)"><path d="M389.21 -5.92 C395.49 -8.4, 406.32 -14.12, 416.09 -14.81 M387.53 -5.66 C398.79 -9.52, 410.14 -13.52, 416.19 -17.2" stroke="#000000" stroke-width="4" fill="none"></path></g><g transform="translate(497.49999999999955 1074) rotate(0 208.16055773799462 -8.303125456071939)"><path d="M388.41 -26.43 C394.9 -21.99, 406 -20.8, 416.09 -14.81 M386.73 -26.17 C398.36 -22.14, 410.01 -18.24, 416.19 -17.2" stroke="#000000" stroke-width="4" fill="none"></path></g></g><g stroke-linecap="round"><g transform="translate(921.4869092567801 1315.4604208245291) rotate(0 -215.9872072301332 -10.682598090423198)"><path d="M0.69 -0.53 C-71.36 -4.27, -360.59 -19.2, -432.67 -23.17 M-0.41 1.8 C-72.07 -1.66, -358.52 -17.32, -430.57 -21.54" stroke="#000000" stroke-width="4" fill="none"></path></g><g transform="translate(921.4869092567801 1315.4604208245291) rotate(0 -215.9872072301332 -10.682598090423198)"><path d="M-402.74 -32.16 C-409.32 -28.21, -418.91 -25.13, -429 -19.84 M-402.48 -30.13 C-411.06 -26.8, -420.05 -24.34, -431.4 -22.09" stroke="#000000" stroke-width="4" fill="none"></path></g><g transform="translate(921.4869092567801 1315.4604208245291) rotate(0 -215.9872072301332 -10.682598090423198)"><path d="M-403.89 -11.68 C-410.03 -13.22, -419.31 -15.63, -429 -19.84 M-403.63 -9.64 C-411.99 -12.98, -420.6 -17.2, -431.4 -22.09" stroke="#000000" stroke-width="4" fill="none"></path></g></g><g transform="translate(793.460473917858 806.4725387380604) rotate(278.9224809662286 82.5 23)"><text x="0" y="32" font-family="Virgil, Segoe UI Emoji" font-size="36px" fill="#000000" text-anchor="start" style="white-space: pre;" direction="ltr">1) wstEth</text></g><g transform="translate(1460.8211645633396 968.035525168576) rotate(356.8377993156675 143.5 23)"><text x="0" y="32" font-family="Virgil, Segoe UI Emoji" font-size="36px" fill="#000000" text-anchor="start" style="white-space: pre;" direction="ltr">3) eth or stEth</text></g><g transform="translate(1210.7438784556211 802.6317370648212) rotate(79.51998903749292 79.5 23)"><text x="0" y="32" font-family="Virgil, Segoe UI Emoji" font-size="36px" fill="#000000" text-anchor="start" style="white-space: pre;" direction="ltr">2) stEth</text></g><g transform="translate(533.4999999999995 999.5) rotate(357.5244683958185 159 23)"><text x="0" y="32" font-family="Virgil, Segoe UI Emoji" font-size="36px" fill="#000000" text-anchor="start" style="white-space: pre;" direction="ltr">0) eth or wstETh</text></g><g transform="translate(1459.2610696974884 1196.5831067719228) rotate(350.25712787301126 101.5 23)"><text x="0" y="32" font-family="Virgil, Segoe UI Emoji" font-size="36px" fill="#000000" text-anchor="start" style="white-space: pre;" direction="ltr">4) LPToken</text></g><g transform="translate(591.9999999999995 1228.5) rotate(0 101 23)"><text x="0" y="32" font-family="Virgil, Segoe UI Emoji" font-size="36px" fill="#000000" text-anchor="start" style="white-space: pre;" direction="ltr">5) LPToken</text></g><g transform="translate(287.17391304347984 58) rotate(0 707.4999999999998 40)"><text x="0" y="56" font-family="Virgil, Segoe UI Emoji" font-size="62.52786282914878px" fill="#000000" text-anchor="start" style="white-space: pre;" direction="ltr">Add Liquidity to stEth curve pool from Aztec</text></g><g stroke-linecap="round" transform="translate(3547.7500000000014 868) rotate(0 261.5 275)"><path d="M327.51 70.57 L489.27 239.96 L505.05 261.71 L505.43 276.09 L506.08 283.87 L500.7 296.88 L477.51 320.65 L307.25 502.4 L289.65 521.86 L276.3 527.83 L262.89 534.42 L257.18 533.7 L244.02 523.75 L217.83 503.21 L45.22 322.05 L27.62 301.97 L18.21 290.77 L17.64 274.26 L16.48 270.01 L22.8 256.09 L43.58 229.88 L215.27 53.27 L242.08 24.26 L255.95 18.88 L263.83 17.63 L275.27 20.72 L297.99 36.69 L329.18 68.77" stroke="none" stroke-width="0" fill="#ffffff"></path><path d="M327.25 69 M327.25 69 C363.11 109.33, 400.85 149.02, 457.75 207 M327.25 69 C377.35 120.78, 426.84 174.59, 457.75 207 M457.75 207 C524.35 274.94, 521.42 276.38, 457.75 344.5 M457.75 207 C523.98 276.57, 523.65 277.96, 457.75 344.5 M457.75 344.5 C410.27 392.34, 362.47 442, 327.25 481.5 M457.75 344.5 C414.28 390.81, 370.75 434.44, 327.25 481.5 M327.25 481.5 C263.1 548.74, 260.52 548.96, 196.5 481.5 M327.25 481.5 C261.46 547.77, 261.2 551.13, 196.5 481.5 M196.5 481.5 C150.02 429.82, 101.91 381.45, 65.5 344.5 M196.5 481.5 C165.5 449.86, 135.74 417.43, 65.5 344.5 M65.5 344.5 C-1.37 274.4, 1.44 275.5, 65.5 207 M65.5 344.5 C1.36 275.83, 1.99 277.61, 65.5 207 M65.5 207 C104.77 165.26, 140.8 129.28, 196.5 69 M65.5 207 C93.23 176.5, 121.15 145.37, 196.5 69 M196.5 69 C260.38 -1.15, 262.02 -1.7, 327.25 69 M196.5 69 C261.4 1.21, 260.71 0.66, 327.25 69" stroke="#000000" stroke-width="4" fill="none"></path></g><g transform="translate(3552.7500000000014 1120) rotate(0 256.5 23)"><text x="256.5" y="32" font-family="Virgil, Segoe UI Emoji" font-size="36px" fill="#000000" text-anchor="middle" style="white-space: pre;" direction="ltr">Bridge</text></g><g stroke-linecap="round" transform="translate(4256.750000000002 262) rotate(0 235 215)"><path d="M109.2 0.51 L376.94 -0.63 L397.77 3.93 L419.35 11.95 L436.88 21.31 L447.78 32.91 L456.55 40.42 L464.43 62.3 L471.4 92.65 L470.5 337.07 L467.59 360.66 L460.82 377.29 L449.01 395.22 L437.2 409.72 L426.97 413.04 L408.29 424.96 L376.79 427.9 L93.82 430.14 L70.48 426.64 L50.39 419.48 L35.99 411.28 L19.95 395.72 L10.64 380.01 L8.58 369.92 L1.21 335.75 L1.42 106.73 L5.7 70.74 L10.19 49.13 L15.93 41.85 L28.45 27.33 L43.95 16.79 L49.99 11.68 L72.1 2.93 L107.42 0.81" stroke="none" stroke-width="0" fill="#ffffff"></path><path d="M107.5 0 M107.5 0 C201.47 2.32, 295.22 2.09, 362.5 0 M107.5 0 C205.51 -0.25, 303.55 -0.66, 362.5 0 M362.5 0 C433.76 0.55, 468.53 37.01, 470 107.5 M362.5 0 C434.74 1.63, 468.67 34.69, 470 107.5 M470 107.5 C467.91 183.44, 467.12 259.58, 470 322.5 M470 107.5 C470.34 183.3, 470.54 257.87, 470 322.5 M470 322.5 C469.54 392.81, 434.1 428.81, 362.5 430 M470 322.5 C468.56 396.34, 434.23 430.75, 362.5 430 M362.5 430 C303.09 432.44, 244.36 432.89, 107.5 430 M362.5 430 C268.84 429.09, 173.16 428.62, 107.5 430 M107.5 430 C37.64 428.34, 1.78 395.99, 0 322.5 M107.5 430 C37.12 431.4, 0.18 392.77, 0 322.5 M0 322.5 C-0.41 274.93, 2 227.29, 0 107.5 M0 322.5 C-0.8 251.22, -1.03 180.41, 0 107.5 M0 107.5 C-0.11 37.61, 37.22 0.28, 107.5 0 M0 107.5 C1.51 36.78, 37.78 1.99, 107.5 0" stroke="#000000" stroke-width="4" fill="none"></path></g><g transform="translate(4261.750000000002 454) rotate(0 230 23)"><text x="230" y="32" font-family="Virgil, Segoe UI Emoji" font-size="36px" fill="#000000" text-anchor="middle" style="white-space: pre;" direction="ltr">Curve</text></g><g stroke-linecap="round" transform="translate(4355.250000000002 1536) rotate(0 223 195)"><path d="M98.92 -1.05 L359.05 0.53 L381.79 4.88 L400.81 10.25 L413.5 17.56 L429 29.28 L433.43 39.92 L441.73 53.01 L446.54 87.24 L446.99 305.93 L443.89 323.74 L436.06 343.15 L428.55 359.45 L414.11 369.49 L406.67 377.97 L392.42 382.23 L359.64 390.18 L97.02 390.42 L74.22 388.45 L56.82 385.76 L37.46 376.02 L30.99 372.16 L20.52 359.53 L14.5 352.15 L7.51 334.38 L2.31 304.08 L-0.31 95.82 L4.24 64.23 L15.28 38.54 L26.34 26.05 L30.03 19.84 L47.22 8.67 L54.77 6.9 L75.99 0.47 L95.92 0.38" stroke="none" stroke-width="0" fill="#ffffff"></path><path d="M97.5 0 M97.5 0 C184.9 0.38, 269.5 -0.99, 348.5 0 M97.5 0 C164.16 1.95, 230.54 2.21, 348.5 0 M348.5 0 C414 1.42, 444.84 31.51, 446 97.5 M348.5 0 C414.77 -1.45, 444.29 31.31, 446 97.5 M446 97.5 C445.09 152.64, 445.81 203.64, 446 292.5 M446 97.5 C444.49 172.21, 444.69 247.67, 446 292.5 M446 292.5 C444.75 359.39, 413.56 390.65, 348.5 390 M446 292.5 C444.42 355.66, 415.16 389.42, 348.5 390 M348.5 390 C259.49 391.51, 167.1 393.25, 97.5 390 M348.5 390 C259.31 389.33, 169.38 390.75, 97.5 390 M97.5 390 C33.62 391.21, 0.15 356.28, 0 292.5 M97.5 390 C30.64 388.68, 0.02 355.55, 0 292.5 M0 292.5 C-0.46 240.64, -2.66 187.18, 0 97.5 M0 292.5 C-1 249.49, -0.25 204.83, 0 97.5 M0 97.5 C1.31 33.33, 34.19 1.73, 97.5 0 M0 97.5 C0.32 31.14, 32.51 -0.01, 97.5 0" stroke="#000000" stroke-width="4" fill="none"></path></g><g transform="translate(4360.250000000002 1708) rotate(0 218 23)"><text x="218" y="32" font-family="Virgil, Segoe UI Emoji" font-size="36px" fill="#000000" text-anchor="middle" style="white-space: pre;" direction="ltr">wstEth</text></g><g stroke-linecap="round"><g transform="translate(4066.333848963241 1110.9447742443226) rotate(0 234.0982757108427 -198.76267380679747)"><path d="M0.1 0.87 C78.47 -65.23, 391.53 -330.09, 469.51 -396.51 M-1.31 0.29 C77.02 -66.19, 390.23 -332.25, 468.84 -398.4" stroke="#000000" stroke-width="4" fill="none"></path></g><g transform="translate(4066.333848963241 1110.9447742443226) rotate(0 234.0982757108427 -198.76267380679747)"><path d="M16.45 -24.28 C12.21 -20.63, 6.85 -11.15, -1.48 2.02 M15.45 -24.39 C10.08 -14.3, 4.22 -5.86, -0.11 0.49" stroke="#000000" stroke-width="4" fill="none"></path></g><g transform="translate(4066.333848963241 1110.9447742443226) rotate(0 234.0982757108427 -198.76267380679747)"><path d="M29.7 -8.61 C22.31 -8.66, 13.81 -2.9, -1.48 2.02 M28.7 -8.73 C18.01 -4.88, 6.96 -2.58, -0.11 0.49" stroke="#000000" stroke-width="4" fill="none"></path></g></g><g stroke-linecap="round"><g transform="translate(4225.521994096927 586.8808563710118) rotate(0 -176.53291301267745 152.08993419699618)"><path d="M0.87 0.53 C-58.01 51.08, -294.02 252.58, -353.22 303.39 M-0.13 -0.23 C-59.14 50.43, -294.72 253.78, -353.94 304.41" stroke="#000000" stroke-width="4" fill="none"></path></g><g transform="translate(4225.521994096927 586.8808563710118) rotate(0 -176.53291301267745 152.08993419699618)"><path d="M-12.99 27.39 C-11.01 17.41, -3.16 8.91, 2.02 2.37 M-13.11 27.34 C-7.06 17.03, -3.05 5.95, 0.49 1.14" stroke="#000000" stroke-width="4" fill="none"></path></g><g transform="translate(4225.521994096927 586.8808563710118) rotate(0 -176.53291301267745 152.08993419699618)"><path d="M-26.33 11.79 C-20.23 6.52, -8.28 2.81, 2.02 2.37 M-26.45 11.74 C-15.33 7.47, -6.1 2.49, 0.49 1.14" stroke="#000000" stroke-width="4" fill="none"></path></g></g><g stroke-linecap="round"><g transform="translate(3893.6191339084594 1369.5638527608426) rotate(0 217.09654441342354 232.27950932396925)"><path d="M0.53 0.44 C72.63 77.58, 360.29 386.57, 432.64 463.75 M-0.64 -0.38 C71.81 76.84, 362.33 387.49, 434.84 464.94" stroke="#000000" stroke-width="4" fill="none"></path></g><g transform="translate(3893.6191339084594 1369.5638527608426) rotate(0 217.09654441342354 232.27950932396925)"><path d="M27.99 12.42 C17.83 11.65, 9.13 6.94, 2.37 2.26 M27.95 14.88 C22.29 10.48, 15.85 8.21, 1.14 0.59" stroke="#000000" stroke-width="4" fill="none"></path></g><g transform="translate(3893.6191339084594 1369.5638527608426) rotate(0 217.09654441342354 232.27950932396925)"><path d="M12.98 26.41 C7.34 21.27, 3.26 12.24, 2.37 2.26 M12.94 28.87 C10.34 21.44, 7.03 16.25, 1.14 0.59" stroke="#000000" stroke-width="4" fill="none"></path></g></g><g stroke-linecap="round"><g transform="translate(4335.250000000002 1598.2244363657592) rotate(0 -155.83446398077285 -182.63815585742122)"><path d="M0.44 -0.99 C-51.72 -61.87, -259.97 -304.1, -312.11 -364.79 M-0.79 1.11 C-52.64 -60.14, -258.21 -305.02, -309.74 -366.38" stroke="#000000" stroke-width="4" fill="none"></path></g><g transform="translate(4335.250000000002 1598.2244363657592) rotate(0 -155.83446398077285 -182.63815585742122)"><path d="M-27.36 -16.79 C-14.24 -11.87, -5.01 -2.99, 2.26 -2.82 M-24.9 -15.03 C-17.5 -10.99, -7.89 -5.09, 0.59 -1.51" stroke="#000000" stroke-width="4" fill="none"></path></g><g transform="translate(4335.250000000002 1598.2244363657592) rotate(0 -155.83446398077285 -182.63815585742122)"><path d="M-11.79 -30.16 C-4.41 -20.21, -0.99 -6.34, 2.26 -2.82 M-9.33 -28.4 C-7.22 -19.63, -2.99 -9.1, 0.59 -1.51" stroke="#000000" stroke-width="4" fill="none"></path></g></g><g stroke-linecap="round" transform="translate(2739.7499999999995 908.5) rotate(0 235 215)"><path d="M108.39 0.73 L373.87 -0.68 L400.7 2.21 L420.33 12.33 L437.81 18.74 L450.34 35.56 L456.26 43.62 L464.6 58.57 L469.16 93.71 L470.8 335.82 L465.18 357.19 L458.26 380.87 L450.69 394.31 L435.32 409.98 L427.53 415.3 L409.11 423.26 L377.49 431.44 L93.85 429.31 L71.11 427.04 L52.67 419.89 L34.8 409.66 L21.99 395.21 L12.42 378.96 L6.41 367.85 L1.23 335.38 L1.57 107.95 L5.74 72.64 L9.68 51.99 L16.25 41.14 L26.8 27.68 L43.34 14.06 L49.23 10.88 L71.82 4.27 L108.06 1.7" stroke="none" stroke-width="0" fill="#ffffff"></path><path d="M107.5 0 M107.5 0 C198.38 -0.24, 288.98 0.19, 362.5 0 M107.5 0 C191.16 -0.64, 273.94 -1.62, 362.5 0 M362.5 0 C435.27 -1.26, 468.52 34.8, 470 107.5 M362.5 0 C433.63 -2.23, 469.2 36.96, 470 107.5 M470 107.5 C473.11 183.58, 472.18 261.55, 470 322.5 M470 107.5 C469.39 158.25, 469.96 207.62, 470 322.5 M470 322.5 C468.63 392.57, 435.61 429.5, 362.5 430 M470 322.5 C471.36 393.99, 436.16 431.61, 362.5 430 M362.5 430 C291.06 430.75, 217.75 433.33, 107.5 430 M362.5 430 C307.68 432.37, 252.01 431.39, 107.5 430 M107.5 430 C34.22 428.85, 0.02 392.47, 0 322.5 M107.5 430 C35.23 431.21, -1.29 394.82, 0 322.5 M0 322.5 C0.23 242.24, -0.13 160.19, 0 107.5 M0 322.5 C-0.73 239.23, -0.57 155.98, 0 107.5 M0 107.5 C0.28 34.65, 35.84 -0.01, 107.5 0 M0 107.5 C-1.67 35.47, 37.83 1.58, 107.5 0" stroke="#000000" stroke-width="4" fill="none"></path></g><g transform="translate(2744.7499999999995 1100.5) rotate(0 230 23)"><text x="230" y="32" font-family="Virgil, Segoe UI Emoji" font-size="36px" fill="#000000" text-anchor="middle" style="white-space: pre;" direction="ltr">Rollup</text></g><g stroke-linecap="round"><g transform="translate(3227.2499999999995 1026) rotate(0 207.8754421272174 -8.38612023548194)"><path d="M1 -0.94 C70.44 -3.57, 346.5 -13.46, 415.69 -16.4 M0.06 1.18 C69.5 -1.7, 345.79 -14.78, 415.1 -17.95" stroke="#000000" stroke-width="4" fill="none"></path></g><g transform="translate(3227.2499999999995 1026) rotate(0 207.8754421272174 -8.38612023548194)"><path d="M385.84 -5.24 C395.34 -7.31, 397.7 -10.73, 416.65 -16.58 M387.21 -6.77 C398.5 -10.38, 407.93 -15.86, 414.48 -17.11" stroke="#000000" stroke-width="4" fill="none"></path></g><g transform="translate(3227.2499999999995 1026) rotate(0 207.8754421272174 -8.38612023548194)"><path d="M384.89 -25.74 C394.48 -23.36, 397.05 -22.31, 416.65 -16.58 M386.25 -27.27 C398.05 -23.06, 407.84 -20.72, 414.48 -17.11" stroke="#000000" stroke-width="4" fill="none"></path></g></g><g stroke-linecap="round"><g transform="translate(3649.7499999999995 1266) rotate(0 -214.2556229849065 -11.134664542456449)"><path d="M-0.94 0.69 C-72.32 -3.05, -357.21 -17.63, -428.9 -21.41 M0.76 0 C-70.62 -3.52, -357.68 -18.96, -429.27 -22.96" stroke="#000000" stroke-width="4" fill="none"></path></g><g transform="translate(3649.7499999999995 1266) rotate(0 -214.2556229849065 -11.134664542456449)"><path d="M-399.42 -29.84 C-405.7 -31.59, -413.64 -26.08, -427.9 -21.33 M-400.95 -31.06 C-411 -29.06, -422.57 -25.98, -428.43 -22.32" stroke="#000000" stroke-width="4" fill="none"></path></g><g transform="translate(3649.7499999999995 1266) rotate(0 -214.2556229849065 -11.134664542456449)"><path d="M-400.54 -9.34 C-406.72 -16.11, -414.38 -15.62, -427.9 -21.33 M-402.07 -10.57 C-411.51 -16.06, -422.68 -20.47, -428.43 -22.32" stroke="#000000" stroke-width="4" fill="none"></path></g></g><g transform="translate(3989.377918978899 760.0989164609928) rotate(318.99527434247017 94.5 23)"><text x="0" y="32" font-family="Virgil, Segoe UI Emoji" font-size="36px" fill="#000000" text-anchor="start" style="white-space: pre;" direction="ltr">1) LPToken</text></g><g transform="translate(4227.811263780955 940.7601033014907) rotate(317.37766380447107 137.5 23)"><text x="0" y="32" font-family="Virgil, Segoe UI Emoji" font-size="36px" fill="#000000" text-anchor="start" style="white-space: pre;" direction="ltr">2) eth + stEth</text></g><g transform="translate(4100.902932214709 1322.1400778522948) rotate(46.041626676009194 79 23)"><text x="0" y="32" font-family="Virgil, Segoe UI Emoji" font-size="36px" fill="#000000" text-anchor="start" style="white-space: pre;" direction="ltr">3) stEth</text></g><g transform="translate(3385.2499999999995 945.5) rotate(0 102 23)"><text x="0" y="32" font-family="Virgil, Segoe UI Emoji" font-size="36px" fill="#000000" text-anchor="start" style="white-space: pre;" direction="ltr">0) LPToken</text></g><g transform="translate(3975.1913557058438 1492.69844295421) rotate(46.041626676009194 89 23)"><text x="0" y="32" font-family="Virgil, Segoe UI Emoji" font-size="36px" fill="#000000" text-anchor="start" style="white-space: pre;" direction="ltr">4) wstEth</text></g><g transform="translate(3247.7499999999995 1180.5) rotate(0 166.5 23)"><text x="0" y="32" font-family="Virgil, Segoe UI Emoji" font-size="36px" fill="#000000" text-anchor="start" style="white-space: pre;" direction="ltr">5) eth and wstEth</text></g><g transform="translate(3014.4239130434794 10) rotate(0 780.5 40)"><text x="0" y="56" font-family="Virgil, Segoe UI Emoji" font-size="62.52786282914878px" fill="#000000" text-anchor="start" style="white-space: pre;" direction="ltr">Remove liquidity from stEth curve pool from Aztec</text></g></svg>